<mxfile host="app.diagrams.net" modified="2023-12-01T12:24:49.806Z" agent="Mozilla/5.0 (Windows NT 10.0; Win64; x64) AppleWebKit/537.36 (KHTML, like Gecko) Chrome/119.0.0.0 Safari/537.36 Edg/119.0.0.0" etag="YsNHw02jLNXgeYu1f4Qy" version="22.1.5" type="device">
  <diagram name="Página-1" id="a9NWVhey3zOKeh3VJVag">
    <mxGraphModel dx="2206" dy="788" grid="1" gridSize="10" guides="1" tooltips="1" connect="1" arrows="1" fold="1" page="1" pageScale="1" pageWidth="827" pageHeight="1169" math="0" shadow="0">
      <root>
        <mxCell id="0" />
        <mxCell id="1" parent="0" />
        <mxCell id="KfFq280s6BGtN9_qKDh9-1" value="Professor" style="whiteSpace=wrap;html=1;align=center;fillColor=#fff2cc;strokeColor=#d6b656;" parent="1" vertex="1">
          <mxGeometry x="-290" y="240" width="130" height="60" as="geometry" />
        </mxCell>
        <mxCell id="KfFq280s6BGtN9_qKDh9-3" value="Turma" style="whiteSpace=wrap;html=1;align=center;fillColor=#fff2cc;strokeColor=#d6b656;" parent="1" vertex="1">
          <mxGeometry y="240" width="130" height="60" as="geometry" />
        </mxCell>
        <mxCell id="KfFq280s6BGtN9_qKDh9-4" value="Atividade" style="whiteSpace=wrap;html=1;align=center;fillColor=#fff2cc;strokeColor=#d6b656;" parent="1" vertex="1">
          <mxGeometry x="280" y="240" width="130" height="60" as="geometry" />
        </mxCell>
        <mxCell id="KfFq280s6BGtN9_qKDh9-7" value="possui" style="shape=rhombus;perimeter=rhombusPerimeter;whiteSpace=wrap;html=1;align=center;fillColor=#f8cecc;strokeColor=#b85450;" parent="1" vertex="1">
          <mxGeometry x="160" y="245" width="90" height="50" as="geometry" />
        </mxCell>
        <mxCell id="KfFq280s6BGtN9_qKDh9-8" value="contém" style="shape=rhombus;perimeter=rhombusPerimeter;whiteSpace=wrap;html=1;align=center;fillColor=#f8cecc;strokeColor=#b85450;" parent="1" vertex="1">
          <mxGeometry x="-120" y="245" width="90" height="50" as="geometry" />
        </mxCell>
        <mxCell id="KfFq280s6BGtN9_qKDh9-10" value="" style="endArrow=none;html=1;rounded=0;entryX=0;entryY=0.5;entryDx=0;entryDy=0;exitX=1;exitY=0.5;exitDx=0;exitDy=0;" parent="1" source="KfFq280s6BGtN9_qKDh9-1" target="KfFq280s6BGtN9_qKDh9-8" edge="1">
          <mxGeometry relative="1" as="geometry">
            <mxPoint x="-30" y="410" as="sourcePoint" />
            <mxPoint x="130" y="410" as="targetPoint" />
          </mxGeometry>
        </mxCell>
        <mxCell id="KfFq280s6BGtN9_qKDh9-11" value="" style="endArrow=none;html=1;rounded=0;exitX=1;exitY=0.5;exitDx=0;exitDy=0;entryX=0;entryY=0.5;entryDx=0;entryDy=0;" parent="1" target="KfFq280s6BGtN9_qKDh9-3" edge="1">
          <mxGeometry relative="1" as="geometry">
            <mxPoint x="-30" y="269.5" as="sourcePoint" />
            <mxPoint y="270" as="targetPoint" />
          </mxGeometry>
        </mxCell>
        <mxCell id="KfFq280s6BGtN9_qKDh9-12" value="" style="endArrow=none;html=1;rounded=0;entryX=0;entryY=0.5;entryDx=0;entryDy=0;" parent="1" edge="1">
          <mxGeometry relative="1" as="geometry">
            <mxPoint x="130" y="270" as="sourcePoint" />
            <mxPoint x="160" y="269.5" as="targetPoint" />
          </mxGeometry>
        </mxCell>
        <mxCell id="KfFq280s6BGtN9_qKDh9-13" value="" style="endArrow=none;html=1;rounded=0;entryX=0;entryY=0.5;entryDx=0;entryDy=0;exitX=1;exitY=0.5;exitDx=0;exitDy=0;" parent="1" source="KfFq280s6BGtN9_qKDh9-7" target="KfFq280s6BGtN9_qKDh9-4" edge="1">
          <mxGeometry relative="1" as="geometry">
            <mxPoint x="-30" y="410" as="sourcePoint" />
            <mxPoint x="130" y="410" as="targetPoint" />
          </mxGeometry>
        </mxCell>
        <mxCell id="KfFq280s6BGtN9_qKDh9-14" value="email" style="ellipse;whiteSpace=wrap;html=1;align=center;fillColor=#dae8fc;strokeColor=#6c8ebf;" parent="1" vertex="1">
          <mxGeometry x="-280" y="130" width="100" height="40" as="geometry" />
        </mxCell>
        <mxCell id="KfFq280s6BGtN9_qKDh9-15" value="senha" style="ellipse;whiteSpace=wrap;html=1;align=center;fillColor=#dae8fc;strokeColor=#6c8ebf;" parent="1" vertex="1">
          <mxGeometry x="-170" y="130" width="100" height="40" as="geometry" />
        </mxCell>
        <mxCell id="KfFq280s6BGtN9_qKDh9-16" value="" style="endArrow=none;html=1;rounded=0;exitX=0.5;exitY=1;exitDx=0;exitDy=0;entryX=0.5;entryY=0;entryDx=0;entryDy=0;fillColor=#fff2cc;strokeColor=#d6b656;" parent="1" source="KfFq280s6BGtN9_qKDh9-14" target="KfFq280s6BGtN9_qKDh9-1" edge="1">
          <mxGeometry relative="1" as="geometry">
            <mxPoint x="-30" y="410" as="sourcePoint" />
            <mxPoint x="130" y="410" as="targetPoint" />
          </mxGeometry>
        </mxCell>
        <mxCell id="KfFq280s6BGtN9_qKDh9-17" value="" style="endArrow=none;html=1;rounded=0;exitX=0.5;exitY=1;exitDx=0;exitDy=0;entryX=0.5;entryY=0;entryDx=0;entryDy=0;fillColor=#fff2cc;strokeColor=#d6b656;" parent="1" source="KfFq280s6BGtN9_qKDh9-15" target="KfFq280s6BGtN9_qKDh9-1" edge="1">
          <mxGeometry relative="1" as="geometry">
            <mxPoint x="-290" y="180" as="sourcePoint" />
            <mxPoint x="-215" y="250" as="targetPoint" />
          </mxGeometry>
        </mxCell>
        <mxCell id="KfFq280s6BGtN9_qKDh9-18" value="" style="endArrow=none;html=1;rounded=0;exitX=0.5;exitY=0;exitDx=0;exitDy=0;fillColor=#fff2cc;strokeColor=#d6b656;" parent="1" source="KfFq280s6BGtN9_qKDh9-3" edge="1">
          <mxGeometry relative="1" as="geometry">
            <mxPoint x="-130" y="180" as="sourcePoint" />
            <mxPoint x="10" y="160" as="targetPoint" />
          </mxGeometry>
        </mxCell>
        <mxCell id="KfFq280s6BGtN9_qKDh9-21" value="Nome" style="ellipse;whiteSpace=wrap;html=1;align=center;fillColor=#dae8fc;strokeColor=#6c8ebf;" parent="1" vertex="1">
          <mxGeometry x="-40" y="130" width="100" height="40" as="geometry" />
        </mxCell>
        <mxCell id="KfFq280s6BGtN9_qKDh9-24" value="Titulo" style="ellipse;whiteSpace=wrap;html=1;align=center;fillColor=#dae8fc;strokeColor=#6c8ebf;" parent="1" vertex="1">
          <mxGeometry x="245" y="130" width="100" height="40" as="geometry" />
        </mxCell>
        <mxCell id="KfFq280s6BGtN9_qKDh9-25" value="Descricao" style="ellipse;whiteSpace=wrap;html=1;align=center;fillColor=#dae8fc;strokeColor=#6c8ebf;" parent="1" vertex="1">
          <mxGeometry x="350" y="130" width="100" height="40" as="geometry" />
        </mxCell>
        <mxCell id="KfFq280s6BGtN9_qKDh9-27" value="" style="endArrow=none;html=1;rounded=0;exitX=0.5;exitY=1;exitDx=0;exitDy=0;entryX=0.5;entryY=0;entryDx=0;entryDy=0;fillColor=#fff2cc;strokeColor=#d6b656;" parent="1" source="KfFq280s6BGtN9_qKDh9-24" target="KfFq280s6BGtN9_qKDh9-4" edge="1">
          <mxGeometry relative="1" as="geometry">
            <mxPoint x="-30" y="410" as="sourcePoint" />
            <mxPoint x="130" y="410" as="targetPoint" />
          </mxGeometry>
        </mxCell>
        <mxCell id="KfFq280s6BGtN9_qKDh9-28" value="" style="endArrow=none;html=1;rounded=0;exitX=0.5;exitY=1;exitDx=0;exitDy=0;entryX=0.5;entryY=0;entryDx=0;entryDy=0;fillColor=#fff2cc;strokeColor=#d6b656;" parent="1" source="KfFq280s6BGtN9_qKDh9-25" target="KfFq280s6BGtN9_qKDh9-4" edge="1">
          <mxGeometry relative="1" as="geometry">
            <mxPoint x="280" y="180" as="sourcePoint" />
            <mxPoint x="355" y="250" as="targetPoint" />
          </mxGeometry>
        </mxCell>
        <mxCell id="KfFq280s6BGtN9_qKDh9-31" value="1" style="text;html=1;align=center;verticalAlign=middle;resizable=0;points=[];autosize=1;strokeColor=none;fillColor=none;" parent="1" vertex="1">
          <mxGeometry x="-160" y="240" width="30" height="30" as="geometry" />
        </mxCell>
        <mxCell id="KfFq280s6BGtN9_qKDh9-32" value="N" style="text;html=1;align=center;verticalAlign=middle;resizable=0;points=[];autosize=1;strokeColor=none;fillColor=none;" parent="1" vertex="1">
          <mxGeometry x="-30" y="240" width="30" height="30" as="geometry" />
        </mxCell>
        <mxCell id="KfFq280s6BGtN9_qKDh9-33" value="1" style="text;html=1;align=center;verticalAlign=middle;resizable=0;points=[];autosize=1;strokeColor=none;fillColor=none;" parent="1" vertex="1">
          <mxGeometry x="130" y="240" width="30" height="30" as="geometry" />
        </mxCell>
        <mxCell id="KfFq280s6BGtN9_qKDh9-34" value="N" style="text;html=1;align=center;verticalAlign=middle;resizable=0;points=[];autosize=1;strokeColor=none;fillColor=none;" parent="1" vertex="1">
          <mxGeometry x="245" y="238" width="30" height="30" as="geometry" />
        </mxCell>
        <mxCell id="KfFq280s6BGtN9_qKDh9-36" value="Nome" style="ellipse;whiteSpace=wrap;html=1;align=center;fillColor=#dae8fc;strokeColor=#6c8ebf;" parent="1" vertex="1">
          <mxGeometry x="-390" y="130" width="100" height="40" as="geometry" />
        </mxCell>
        <mxCell id="KfFq280s6BGtN9_qKDh9-37" value="" style="endArrow=none;html=1;rounded=0;exitX=0.5;exitY=1;exitDx=0;exitDy=0;fillColor=#fff2cc;strokeColor=#d6b656;" parent="1" source="KfFq280s6BGtN9_qKDh9-36" edge="1">
          <mxGeometry relative="1" as="geometry">
            <mxPoint x="-220" y="180" as="sourcePoint" />
            <mxPoint x="-230" y="240" as="targetPoint" />
          </mxGeometry>
        </mxCell>
      </root>
    </mxGraphModel>
  </diagram>
</mxfile>
